<?xml version="1.0" encoding="UTF-8"?>
<svg id="Ebene_2" data-name="Ebene 2" xmlns="http://www.w3.org/2000/svg" viewBox="0 0 1081 1081">
  <defs>
    <style>
      .cls-1 {
        fill: #222428;
      }

      .cls-1, .cls-2, .cls-3 {
        stroke: #000;
        stroke-miterlimit: 10;
      }

      .cls-2 {
        fill: #3880ff;
      }

      .cls-3 {
        fill: #eb445a;
      }
    </style>
  </defs>
  <g id="Ebene_1-2" data-name="Ebene 1">
    <g>
      <rect class="cls-1" x=".5" y=".5" width="1080" height="1080"/>
      <g>
        <path class="cls-2" d="m108.41,972.59V54.49C108.41,24.72,84.27.5,54.49.5S.5,24.72.5,54.49v972.02c0,29.85,24.14,53.99,53.99,53.99h411.61v-107.91H108.41Z"/>
        <path class="cls-3" d="m1031.99,108.41c27.26-2.74,48.51-25.66,48.51-53.61V.5h-560.49c-21.48,0-39.98,12.56-48.59,30.69-1.22,2.59-2.28,5.33-3.12,8.15-.46,1.52-.84,3.05-1.14,4.57-.69,3.43-1.07,7.01-1.07,10.59v1026.01h59.48c27.19-2.74,48.43-25.74,48.43-53.69V458.94h452.5c29.78,0,53.99-24.14,53.99-53.92s-24.22-53.99-53.99-53.99h-452.5V108.41h457.98Z"/>
      </g>
    </g>
  </g>
</svg>